<mxfile host="app.diagrams.net" modified="2024-03-21T12:56:44.463Z" agent="Mozilla/5.0 (Windows NT 10.0; Win64; x64) AppleWebKit/537.36 (KHTML, like Gecko) Chrome/122.0.0.0 Safari/537.36" etag="RhL-H0mf5x-186g02hkq" version="24.0.7" type="device">
  <diagram name="Página-1" id="sQQHQKbdMe0pKAzqPIBY">
    <mxGraphModel dx="1061" dy="550" grid="1" gridSize="10" guides="1" tooltips="1" connect="1" arrows="1" fold="1" page="1" pageScale="1" pageWidth="827" pageHeight="1169" math="0" shadow="0">
      <root>
        <mxCell id="0" />
        <mxCell id="1" parent="0" />
        <mxCell id="y2IHZQw9fiN1aoQCvNJs-1" style="edgeStyle=orthogonalEdgeStyle;rounded=0;orthogonalLoop=1;jettySize=auto;html=1;exitX=0.5;exitY=1;exitDx=0;exitDy=0;entryX=0.5;entryY=0;entryDx=0;entryDy=0;" edge="1" parent="1" source="y2IHZQw9fiN1aoQCvNJs-2" target="y2IHZQw9fiN1aoQCvNJs-7">
          <mxGeometry relative="1" as="geometry" />
        </mxCell>
        <mxCell id="y2IHZQw9fiN1aoQCvNJs-2" value="Inicio" style="ellipse;whiteSpace=wrap;html=1;" vertex="1" parent="1">
          <mxGeometry x="354" y="29" width="96" height="50" as="geometry" />
        </mxCell>
        <mxCell id="y2IHZQw9fiN1aoQCvNJs-19" style="edgeStyle=orthogonalEdgeStyle;rounded=0;orthogonalLoop=1;jettySize=auto;html=1;exitX=0.5;exitY=1;exitDx=0;exitDy=0;entryX=0.5;entryY=0;entryDx=0;entryDy=0;" edge="1" parent="1" source="y2IHZQw9fiN1aoQCvNJs-4" target="y2IHZQw9fiN1aoQCvNJs-12">
          <mxGeometry relative="1" as="geometry" />
        </mxCell>
        <mxCell id="y2IHZQw9fiN1aoQCvNJs-4" value="km&lt;div&gt;&lt;/div&gt;" style="shape=manualInput;whiteSpace=wrap;html=1;" vertex="1" parent="1">
          <mxGeometry x="353" y="199" width="97" height="60" as="geometry" />
        </mxCell>
        <mxCell id="y2IHZQw9fiN1aoQCvNJs-5" value="txConsumo &amp;lt;-- km/comb" style="rounded=0;whiteSpace=wrap;html=1;" vertex="1" parent="1">
          <mxGeometry x="306.5" y="508" width="190" height="50" as="geometry" />
        </mxCell>
        <mxCell id="y2IHZQw9fiN1aoQCvNJs-18" style="edgeStyle=orthogonalEdgeStyle;rounded=0;orthogonalLoop=1;jettySize=auto;html=1;entryX=0.5;entryY=0;entryDx=0;entryDy=0;" edge="1" parent="1" source="y2IHZQw9fiN1aoQCvNJs-7" target="y2IHZQw9fiN1aoQCvNJs-4">
          <mxGeometry relative="1" as="geometry" />
        </mxCell>
        <mxCell id="y2IHZQw9fiN1aoQCvNJs-7" value="Informe km" style="shape=document;whiteSpace=wrap;html=1;boundedLbl=1;" vertex="1" parent="1">
          <mxGeometry x="361.5" y="109" width="80" height="60" as="geometry" />
        </mxCell>
        <mxCell id="y2IHZQw9fiN1aoQCvNJs-9" value="txConsumo" style="shape=display;whiteSpace=wrap;html=1;" vertex="1" parent="1">
          <mxGeometry x="355" y="619" width="98" height="60" as="geometry" />
        </mxCell>
        <mxCell id="y2IHZQw9fiN1aoQCvNJs-10" style="edgeStyle=orthogonalEdgeStyle;rounded=0;orthogonalLoop=1;jettySize=auto;html=1;exitX=0.5;exitY=1;exitDx=0;exitDy=0;entryX=0;entryY=0;entryDx=46.25;entryDy=0;entryPerimeter=0;" edge="1" parent="1" source="y2IHZQw9fiN1aoQCvNJs-5" target="y2IHZQw9fiN1aoQCvNJs-9">
          <mxGeometry relative="1" as="geometry" />
        </mxCell>
        <mxCell id="y2IHZQw9fiN1aoQCvNJs-11" value="Fim" style="ellipse;whiteSpace=wrap;html=1;" vertex="1" parent="1">
          <mxGeometry x="353" y="989" width="96" height="50" as="geometry" />
        </mxCell>
        <mxCell id="y2IHZQw9fiN1aoQCvNJs-20" style="edgeStyle=orthogonalEdgeStyle;rounded=0;orthogonalLoop=1;jettySize=auto;html=1;entryX=0.5;entryY=0;entryDx=0;entryDy=0;" edge="1" parent="1" source="y2IHZQw9fiN1aoQCvNJs-12" target="y2IHZQw9fiN1aoQCvNJs-14">
          <mxGeometry relative="1" as="geometry" />
        </mxCell>
        <mxCell id="y2IHZQw9fiN1aoQCvNJs-12" value="Informe combustivel" style="shape=document;whiteSpace=wrap;html=1;boundedLbl=1;" vertex="1" parent="1">
          <mxGeometry x="362" y="299" width="80" height="60" as="geometry" />
        </mxCell>
        <mxCell id="y2IHZQw9fiN1aoQCvNJs-21" style="edgeStyle=orthogonalEdgeStyle;rounded=0;orthogonalLoop=1;jettySize=auto;html=1;exitX=0.5;exitY=1;exitDx=0;exitDy=0;entryX=0.5;entryY=0;entryDx=0;entryDy=0;" edge="1" parent="1" source="y2IHZQw9fiN1aoQCvNJs-14" target="y2IHZQw9fiN1aoQCvNJs-5">
          <mxGeometry relative="1" as="geometry" />
        </mxCell>
        <mxCell id="y2IHZQw9fiN1aoQCvNJs-14" value="comb&lt;div&gt;&lt;/div&gt;" style="shape=manualInput;whiteSpace=wrap;html=1;" vertex="1" parent="1">
          <mxGeometry x="353" y="399" width="97" height="60" as="geometry" />
        </mxCell>
        <mxCell id="y2IHZQw9fiN1aoQCvNJs-26" style="edgeStyle=orthogonalEdgeStyle;rounded=0;orthogonalLoop=1;jettySize=auto;html=1;exitX=1;exitY=0.5;exitDx=0;exitDy=0;entryX=0;entryY=0.5;entryDx=0;entryDy=0;" edge="1" parent="1" source="y2IHZQw9fiN1aoQCvNJs-22" target="y2IHZQw9fiN1aoQCvNJs-25">
          <mxGeometry relative="1" as="geometry" />
        </mxCell>
        <mxCell id="y2IHZQw9fiN1aoQCvNJs-29" style="edgeStyle=orthogonalEdgeStyle;rounded=0;orthogonalLoop=1;jettySize=auto;html=1;exitX=0.5;exitY=1;exitDx=0;exitDy=0;entryX=0.5;entryY=0;entryDx=0;entryDy=0;" edge="1" parent="1" source="y2IHZQw9fiN1aoQCvNJs-22" target="y2IHZQw9fiN1aoQCvNJs-24">
          <mxGeometry relative="1" as="geometry" />
        </mxCell>
        <mxCell id="y2IHZQw9fiN1aoQCvNJs-22" value="Taxa &amp;lt;= 8" style="rhombus;whiteSpace=wrap;html=1;" vertex="1" parent="1">
          <mxGeometry x="361" y="749" width="80" height="80" as="geometry" />
        </mxCell>
        <mxCell id="y2IHZQw9fiN1aoQCvNJs-23" style="edgeStyle=orthogonalEdgeStyle;rounded=0;orthogonalLoop=1;jettySize=auto;html=1;exitX=0;exitY=0;exitDx=46.25;exitDy=60;exitPerimeter=0;entryX=0.5;entryY=-0.052;entryDx=0;entryDy=0;entryPerimeter=0;" edge="1" parent="1" source="y2IHZQw9fiN1aoQCvNJs-9" target="y2IHZQw9fiN1aoQCvNJs-22">
          <mxGeometry relative="1" as="geometry" />
        </mxCell>
        <mxCell id="y2IHZQw9fiN1aoQCvNJs-28" style="edgeStyle=orthogonalEdgeStyle;rounded=0;orthogonalLoop=1;jettySize=auto;html=1;exitX=0.5;exitY=1;exitDx=0;exitDy=0;entryX=0.5;entryY=0;entryDx=0;entryDy=0;" edge="1" parent="1" source="y2IHZQw9fiN1aoQCvNJs-24" target="y2IHZQw9fiN1aoQCvNJs-11">
          <mxGeometry relative="1" as="geometry" />
        </mxCell>
        <mxCell id="y2IHZQw9fiN1aoQCvNJs-24" value="O automóvel está consumindo muito combustivel" style="rounded=0;whiteSpace=wrap;html=1;" vertex="1" parent="1">
          <mxGeometry x="341" y="880" width="120" height="60" as="geometry" />
        </mxCell>
        <mxCell id="y2IHZQw9fiN1aoQCvNJs-30" style="edgeStyle=orthogonalEdgeStyle;rounded=0;orthogonalLoop=1;jettySize=auto;html=1;exitX=0.5;exitY=1;exitDx=0;exitDy=0;entryX=1;entryY=0.5;entryDx=0;entryDy=0;" edge="1" parent="1" source="y2IHZQw9fiN1aoQCvNJs-25" target="y2IHZQw9fiN1aoQCvNJs-11">
          <mxGeometry relative="1" as="geometry" />
        </mxCell>
        <mxCell id="y2IHZQw9fiN1aoQCvNJs-25" value="O consumo de combustivel do automóvel está bom" style="rounded=0;whiteSpace=wrap;html=1;" vertex="1" parent="1">
          <mxGeometry x="540" y="759" width="120" height="60" as="geometry" />
        </mxCell>
      </root>
    </mxGraphModel>
  </diagram>
</mxfile>
